<svg width="410" height="248" viewBox="0 0 410 248" fill="none" xmlns="http://www.w3.org/2000/svg">
<g clip-path="url(#clip0_227_2396)">
<path d="M391.802 137.108L390.517 149.211L387.33 179.271H323.294C323.794 172.533 324.478 162.836 325.208 152.367C325.28 151.321 325.355 150.269 325.427 149.211C327.259 122.895 329.263 93.1161 329.263 93.1161L337.681 94.972L354.015 98.5661L360.671 100.03L378.494 103.957C387.38 105.911 393.493 121.137 391.802 137.108V137.108Z" fill="#F2F2F2"/>
<path d="M343.364 44.4192L351.239 60.7264L336.104 73.4196L329.647 53.3749L343.364 44.4192Z" fill="#FFB6B6"/>
<path d="M333.338 59.8464C344.113 59.8464 352.847 49.5106 352.847 36.7608C352.847 24.0109 344.113 13.675 333.338 13.675C322.564 13.675 313.83 24.0109 313.83 36.7608C313.83 49.5106 322.564 59.8464 333.338 59.8464Z" fill="#FFB6B6"/>
<path d="M331.938 41.9217C330.389 39.1319 330.997 37.6727 329.7 36.6475C329.7 36.6474 329.178 36.2349 325.443 35.9997C324.607 28.8777 323.563 28.014 323.563 28.014C322.36 27.0186 320.575 27.342 319.464 27.9508C317.115 29.2384 317.387 32.0198 315.805 32.552C313.62 33.2873 309.645 29.1424 309.253 24.3973C308.934 20.5266 311.041 16.7673 311.877 16.9662C312.706 17.1634 314.69 14.1658 315.761 14.2121C316.493 14.2436 319.482 12.7061 320.286 12.8263C321.165 12.9576 324.06 14.7458 324.181 14.3372C325.019 11.4982 324.773 10.7105 325.484 9.89837C326.745 8.45921 328.808 9.4614 332.043 9.99944C338.7 11.1065 339.862 8.50889 343.274 10.2695C344.997 11.1589 346.439 13.5575 349.253 18.3184C353.188 24.9764 355.155 28.3054 355.168 32.1883C355.181 36.1481 353.561 35.8967 352.849 41.7588C352.057 48.2843 353.74 51.2682 351.901 53.3882C350.479 55.0267 347.59 55.4156 346.073 53.9776C343.474 51.5156 346.875 45.5747 343.999 41.2343C342.234 38.57 338.683 37.3845 337.057 38.7015C335.218 40.1906 336.231 44.5615 334.938 44.976C333.831 45.3309 332.208 42.4079 331.938 41.9217L331.938 41.9217Z" fill="#2F2E41"/>
<path d="M377.382 132.846C376.838 143.856 374.676 147.332 373.919 160.334C373.754 163.189 373.655 166.503 373.655 170.454C373.655 171.462 373.659 172.436 373.659 173.388C373.659 175.414 373.626 177.328 373.427 179.27C373.276 180.821 373.016 182.382 372.586 184.028H330.569C330.565 184.017 330.565 184.006 330.56 183.994C330.314 182.729 330.158 181.52 330.039 180.362C330.002 179.992 329.968 179.629 329.94 179.27C329.902 178.85 329.869 178.436 329.836 178.028C329.708 176.399 329.581 174.86 329.278 173.388C328.871 171.356 328.133 169.441 326.619 167.594C326 166.839 325.381 166.251 324.775 165.736C324.657 165.641 324.543 165.546 324.425 165.45C322.75 164.09 321.166 163.111 319.794 160.334C319.771 160.295 319.752 160.251 319.733 160.211C319.496 159.724 318.881 158.448 318.437 156.747C317.968 154.978 317.685 152.756 318.196 150.483C319.411 145.099 323.914 144.561 327.594 139.121C327.991 138.533 328.384 137.884 328.758 137.161C330.422 133.96 330.872 131.139 331.402 127.786C331.487 127.243 331.562 126.706 331.624 126.185C331.671 125.793 331.714 125.407 331.747 125.026C332.04 121.83 331.898 119.076 331.553 116.614C330.427 108.548 327.107 103.555 329.453 96.3176C330.191 94.0453 331.236 92.3379 332.291 90.8771C334.523 87.7816 336.818 85.7723 336.42 81.7759C336.018 77.7457 333.435 77.1915 333.147 73.6707C333 71.891 333.492 70.0158 334.415 68.1742V68.1688C337.366 62.241 344.736 56.7836 349.418 56.9572C350.284 56.9853 351.05 57.2146 351.688 57.6568C354.002 59.2688 353.037 62.7895 356.58 67.7266C359.214 71.3927 362.194 72.8593 363.324 73.5532C367.804 76.3185 371.446 84.4738 373.919 94.9016C373.938 94.98 373.957 95.0582 373.976 95.1423C375.504 101.674 376.583 109.091 377.117 116.614C377.344 119.799 377.476 123 377.505 126.168C377.529 128.698 377.481 130.893 377.382 132.846Z" fill="#39B4F8"/>
<path d="M345.918 170.566L345.062 173.388L344.522 175.156L343.273 179.27L341.826 184.028H332.522L334.083 179.27L334.807 177.054L336.009 173.388L338.023 167.23L345.918 170.566Z" fill="#FFB6B6"/>
<path d="M374.066 93.9387C374.042 94.3027 374.009 94.7056 373.976 95.1423C373.607 99.5866 372.737 107.54 371.465 116.614C370.793 121.399 370.008 126.499 369.123 131.564C367.222 142.496 364.857 153.26 362.184 160.334C361.707 161.611 361.215 162.764 360.713 163.782C360.33 164.561 359.928 165.327 359.507 166.083C358.145 168.563 356.617 170.914 355.032 173.108C354.971 173.203 354.9 173.292 354.829 173.388C354.574 173.746 354.309 174.098 354.044 174.451C352.748 176.18 351.424 177.792 350.142 179.27C348.581 181.073 347.076 182.668 345.729 184.028H330.621L330.559 183.994L328.384 182.852C328.384 182.852 329.003 181.99 330.039 180.362C330.252 180.031 330.479 179.668 330.725 179.27C331.028 178.783 331.354 178.246 331.704 177.664C332.432 176.444 333.26 175.011 334.149 173.388C335.871 170.247 337.834 166.385 339.816 161.913C340.043 161.392 340.275 160.866 340.507 160.334C340.511 160.318 340.521 160.301 340.526 160.284C340.918 159.377 341.306 158.443 341.694 157.491C344.981 149.397 345.923 142.68 346.192 140.503C346.571 137.425 347.095 133.12 346.954 128.385C346.859 125.262 346.476 121.959 345.563 118.679V118.674C345.374 117.985 345.161 117.297 344.92 116.614C344.489 115.388 343.978 114.179 343.373 112.987C340.701 107.736 338.53 107.518 336.803 101.797C336.292 100.101 335.133 96.273 335.488 92.2316V92.2261C335.531 91.7279 335.602 91.2242 335.696 90.7202V90.7147C335.72 90.5748 335.753 90.4294 335.786 90.2895C336.056 89.0525 336.501 87.8264 337.177 86.6621C338.496 84.401 340.298 83.0574 341.911 82.2572L341.916 82.2515C343.78 81.3337 345.388 81.1377 345.7 81.1041C352.611 80.3766 357.97 87.25 360.898 91.0058C362.028 92.4554 363.064 93.6703 364.01 94.6607C371.374 102.441 373.394 97.4706 373.919 94.9015C374 94.5041 374.042 94.1628 374.066 93.9387V93.9387Z" fill="#39B4F8"/>
<path d="M374.09 93.6478C374.09 93.6757 374.085 93.7708 374.066 93.9277C374.075 93.8435 374.08 93.7596 374.085 93.6812C374.085 93.6645 374.085 93.6533 374.09 93.6478Z" fill="#39B4F8"/>
<path d="M336.524 211.757H82.9732C80.6174 211.757 78.6973 214.024 78.6973 216.812C78.6973 219.605 80.6174 221.871 82.9732 221.871H336.524C338.879 221.871 340.795 219.605 340.795 216.812C340.795 214.024 338.879 211.757 336.524 211.757Z" fill="#E6E6E6"/>
<path d="M280.257 237.886H139.237C136.881 237.886 134.966 240.153 134.966 242.94C134.966 245.727 136.881 248 139.237 248H280.257C282.612 248 284.533 245.727 284.533 242.94C284.533 240.153 282.612 237.886 280.257 237.886Z" fill="#E6E6E6"/>
<path d="M111.188 45.4922L127.167 37.5341L134.021 54.1612L117.229 62.272L111.188 45.4922Z" fill="#FFB6B6"/>
<path opacity="0.1" d="M111.188 45.4922L127.167 37.5341L134.021 54.1612L117.229 62.272L111.188 45.4922Z" fill="black"/>
<path d="M113.459 39.1562L129.223 60.6499C129.223 60.6499 118.257 101.609 107.29 105.259C96.324 108.909 76.1048 126.753 76.1048 126.753L50.7451 107.287L63.0823 85.7934C63.0823 85.7934 92.897 37.5341 100.779 37.5341C108.661 37.5341 113.459 39.1562 113.459 39.1562V39.1562Z" fill="#39B4F8"/>
<path d="M92.1602 179.27H55.464L53.144 175.6L43.6718 160.616L41.4922 157.169C41.4922 157.169 33.2675 139.325 34.9809 123.103C36.6944 106.882 54.5148 103.232 54.5148 103.232H55.2481L77.0643 125.918L75.7621 147.03L82.6709 160.616L92.1602 179.27Z" fill="#2F2E41"/>
<path d="M62.98 179.27H53.1445V162.035L62.98 179.27Z" fill="#2F2E41"/>
<path d="M275.117 153.105L273.894 160.616L270.857 179.27H209.86C210.337 175.089 210.988 169.071 211.683 162.574C211.752 161.925 211.824 161.273 211.893 160.616C213.637 144.284 215.546 125.804 215.546 125.804L223.565 126.956L239.123 129.186L245.463 130.095L262.441 132.532C270.905 133.744 276.728 143.194 275.117 153.105H275.117Z" fill="#F2F2F2"/>
<path d="M361.44 179.27H328.355C328.859 178.569 329.144 178.163 329.144 178.163L339.061 176.225L359.496 172.234C359.496 172.234 360.429 175.085 361.44 179.27V179.27Z" fill="#2F2E41"/>
<path d="M221.105 53.6036L235.493 77.6823L210.396 78.5692L207.702 55.9409L221.105 53.6036Z" fill="#A0616A"/>
<path opacity="0.1" d="M221.105 53.6036L235.493 77.6823L210.396 78.5692L207.702 55.9409L221.105 53.6036Z" fill="black"/>
<path d="M150.151 103.493C148.305 97.1907 144.061 93.2095 140.672 94.6005C137.283 95.9915 136.033 102.227 137.88 108.531C138.589 111.061 139.8 113.354 141.411 115.217L149.518 141.802L159.979 137.034L150.876 111.332C151.167 108.688 150.918 106 150.151 103.493Z" fill="#A0616A"/>
<path d="M247.542 91.2236L247.523 115.763L245.593 124.827L241.625 143.469L238.736 160.616L236.584 173.39L235.816 177.952C235.237 178.411 234.661 178.849 234.085 179.27H183.959C181.111 177.247 179.518 175.673 179.518 175.673C179.518 175.673 180.306 174.797 181.207 173.39C182.729 171.014 184.569 167.12 183.441 163.402C183.205 162.623 183.143 161.674 183.215 160.616C183.675 153.632 189.864 141.823 189.864 141.823L188.582 124.295L188.02 116.614L191.983 79.1626L204.899 70.2773L207.129 70.022L229.14 68.6147L238.238 69.2352L238.653 69.369L247.542 91.2236V91.2236Z" fill="#CCCCCC"/>
<path d="M248.52 179.27H237.554L237.071 173.39L237.061 173.273L240.165 173.021L248.243 172.368L248.383 175.888L248.493 178.589L248.52 179.27Z" fill="#FFB6B6"/>
<path d="M251.22 97.1567L255.827 129.142L252.067 160.616L251.481 165.515L250.446 174.165L250.127 176.825L250.138 177.113L250.217 179.27H237.194L236.714 173.39L236.673 172.863L235.693 160.818L235.676 160.616L233.596 135.075L237.674 116.615L237.975 115.256V115.252L239.75 83.6441L238.375 69.2799L238.362 69.146C238.389 69.1663 238.413 69.1866 238.441 69.2068C238.513 69.2596 238.585 69.3123 238.653 69.3691C246.659 75.3792 251.429 85.9233 251.22 97.1567Z" fill="#CCCCCC"/>
<path d="M196.648 85.2916L191.64 79.1621C191.64 79.1621 180.92 84.8812 180.386 88.0541C179.852 91.2271 160.924 137.829 160.924 137.829L152.689 111.802L141.97 120.271C141.97 120.271 150.571 160.679 158.614 162.576C166.658 164.473 193.617 114.749 193.617 114.749L196.648 85.2916H196.648Z" fill="#CCCCCC"/>
<path d="M399.987 160.334H10.0087C4.48887 160.334 0 165.652 0 172.184C0 178.716 4.48887 184.028 10.0087 184.028H399.987C405.507 184.028 410 178.716 410 172.184C410 165.652 405.507 160.334 399.987 160.334Z" fill="#E6E6E6"/>
<path d="M245.26 124.227L244.502 166.097C244.429 170.15 241.631 173.39 238.205 173.39H173.119C169.775 173.39 167.013 170.296 166.831 166.344L164.896 124.474C164.699 120.205 167.572 116.615 171.185 116.615H238.963C242.495 116.615 245.336 120.049 245.26 124.227Z" fill="#3F3D56"/>
<path d="M140.189 55.5992C148.789 55.5992 155.761 47.3489 155.761 37.1717C155.761 26.9945 148.789 18.7443 140.189 18.7443C131.589 18.7443 124.617 26.9945 124.617 37.1717C124.617 47.3489 131.589 55.5992 140.189 55.5992Z" fill="#FFB6B6"/>
<path d="M114.145 85.3879L115.858 107.287L127.51 162.846L117.444 167.021L100.437 106.476L98.0879 82.1436L114.145 85.3879Z" fill="#FFB6B6"/>
<path d="M109.51 124.227L108.752 166.097C108.678 170.15 105.881 173.39 102.455 173.39H37.3693C34.0245 173.39 31.2631 170.296 31.0805 166.344L29.1463 124.474C28.9491 120.205 31.8216 116.615 35.4351 116.615H103.213C106.745 116.615 109.586 120.049 109.51 124.227Z" fill="#3F3D56"/>
<path d="M129.365 173.673C136.157 173.673 141.663 170.791 141.663 167.236C141.663 163.681 136.157 160.799 129.365 160.799C122.573 160.799 117.067 163.681 117.067 167.236C117.067 170.791 122.573 173.673 129.365 173.673Z" fill="#FFB6B6"/>
<path d="M89.9844 88.7359L97.0097 44.4282C97.0097 44.4282 116.544 41.1839 117.229 48.8892C117.914 56.5945 116.739 94.2511 116.739 94.2511L89.9844 88.7359V88.7359Z" fill="#39B4F8"/>
<path d="M133.903 40.0691C133.903 40.0691 143.536 36.0007 147.599 33.8117C151.663 31.6228 159.735 46.8907 159.915 38.8272C160.094 30.7637 157.305 27.3822 157.305 27.3822C157.305 27.3822 156.608 9.74216 141.59 11.9476C141.59 11.9476 144.894 3.12207 134.05 1.75737C123.207 0.392663 106.338 31.379 107.848 36.0098C109.359 40.6405 111.17 44.469 106.884 49.4203C102.598 54.3715 94.5717 82.3154 100.678 89.8348C106.785 97.3543 107.186 100.617 103.002 105.295C98.8176 109.973 88.9279 120.145 99.621 121.911C110.314 123.677 98.6427 122.358 106.615 114.06C114.586 105.762 126.219 106.101 121.876 92.7877C117.532 79.4743 125.078 60.3963 124.134 57.5021C123.19 54.6079 126.25 36.2294 126.25 36.2294C126.25 36.2294 133.371 34.9914 133.903 40.0691V40.0691Z" fill="#2F2E41"/>
<path d="M213.413 62.3188C222.775 62.3188 230.364 53.3378 230.364 42.2592C230.364 31.1806 222.775 22.1996 213.413 22.1996C204.051 22.1996 196.462 31.1806 196.462 42.2592C196.462 53.3378 204.051 62.3188 213.413 62.3188Z" fill="#A0616A"/>
<path d="M214.766 15.2905C214.275 15.6293 213.618 15.1167 213.461 14.4709C213.304 13.825 213.487 13.1394 213.668 12.5026L214.583 9.29688C215.232 7.02334 215.92 4.67035 217.325 2.93989C219.445 0.328034 222.815 -0.336409 225.849 0.144956C229.744 0.763127 233.588 3.25934 235.399 7.38716C237.21 11.515 236.439 17.2748 233.166 19.8501C237.831 26.177 239.457 33.2281 239.2 41.619C238.943 50.01 231.216 57.7324 226.177 63.6435C225.052 62.8362 224.029 59.0531 224.648 57.6788C225.267 56.3045 224.38 54.7123 225.146 53.4464C225.913 52.1805 226.554 54.1962 225.779 52.9375C225.29 52.1432 227.198 50.316 226.472 49.8406C222.956 47.5412 221.787 42.3563 219.58 38.3858C216.917 33.5967 212.359 30.3534 207.536 29.8154C204.879 29.519 202.073 30.0558 199.895 31.8811C197.717 33.7065 196.307 36.9683 196.812 40.0693C195.504 38.4978 194.853 36.1948 195.099 34.0083C195.344 31.8219 196.481 29.8001 198.091 28.6874C197.112 24.858 197.95 20.4531 200.222 17.4898C202.493 14.5265 211.706 15.0312 215.022 15.8111L214.766 15.2905Z" fill="#2F2E41"/>
<path d="M215.28 29.9316C219.672 30.4927 222.843 34.9945 225.521 39.1519C227.064 41.5481 228.68 44.1944 228.642 47.2069C228.603 50.2526 226.882 52.865 226.059 55.7514C224.715 60.4694 226.025 66.0827 229.225 69.3154C226.063 70.0254 222.645 67.2199 222.099 63.4666C221.464 59.0973 224.263 54.8803 223.931 50.4641C223.639 46.5734 221.048 43.5791 218.846 40.67C216.643 37.761 214.574 33.9007 215.588 30.1834L215.28 29.9316Z" fill="#2F2E41"/>
<path d="M280.936 162.87C276.586 165.798 274.337 170.827 275.912 174.103C277.487 177.379 282.289 177.66 286.641 174.73C288.392 173.588 289.888 171.966 291.001 170L309.3 157.319L304.088 147.284L286.602 160.851C284.604 160.979 282.662 161.671 280.936 162.87Z" fill="#FFB6B6"/>
<path d="M342.893 69.8776C342.346 69.6212 337.548 67.4709 333.167 70.3099C328.136 73.571 327.358 81.0156 327.086 83.6267C326.456 89.6584 328.311 91.0103 328.703 97.1166C329.435 108.541 331.367 95.508 328.282 100.723C327.214 102.528 316.307 130.499 310.292 135.978C298.593 146.634 291.164 154.139 291.164 154.139L299.645 165.041C299.645 165.041 313.047 160.815 324.892 151.713C337.042 142.377 343.118 137.709 347.818 128.577C348.223 127.79 357.908 108.328 352.706 86.8069C351.52 81.898 349.346 72.9039 342.893 69.8776Z" fill="#39B4F8"/>
<path d="M386.687 124.227L385.929 166.097C385.855 170.15 383.058 173.39 379.632 173.39H314.546C311.201 173.39 308.44 170.296 308.257 166.344L306.323 124.474C306.126 120.205 308.998 116.615 312.612 116.615H380.39C383.921 116.615 386.762 120.049 386.687 124.227Z" fill="#3F3D56"/>
</g>
<defs>
<clipPath id="clip0_227_2396">
<rect width="410" height="248" fill="white"/>
</clipPath>
</defs>
</svg>
