<svg width="222" height="60" viewBox="0 0 222 60" fill="none" xmlns="http://www.w3.org/2000/svg">
<rect y="7" width="222" height="46" rx="5" fill="#0A2042"/>
<rect x="28" width="55" height="60" rx="5" fill="#BFDBFE"/>
<path d="M55.4467 43L50.6695 26.3043H54.5255L57.2891 37.9049H57.4276L60.4766 26.3043H63.7782L66.819 37.9293H66.9657L69.7293 26.3043H73.5853L68.8081 43H65.3679L62.1885 32.0842H62.0581L58.8869 43H55.4467Z" fill="#0A2042"/>
<path d="M50.962 23.1875C50.8427 22.7727 50.6751 22.4062 50.4592 22.0881C50.2433 21.7642 49.979 21.4915 49.6665 21.2699C49.3597 21.0426 49.0075 20.8693 48.6097 20.75C48.2177 20.6307 47.783 20.571 47.3058 20.571C46.4137 20.571 45.6296 20.7926 44.9535 21.2358C44.283 21.679 43.7603 22.3239 43.3853 23.1705C43.0103 24.0114 42.8228 25.0398 42.8228 26.2557C42.8228 27.4716 43.0075 28.5057 43.3768 29.358C43.7461 30.2102 44.2688 30.8608 44.945 31.3097C45.6211 31.7528 46.4194 31.9744 47.3398 31.9744C48.1751 31.9744 48.8881 31.8267 49.479 31.5312C50.0756 31.2301 50.5302 30.8068 50.8427 30.2614C51.1609 29.7159 51.32 29.071 51.32 28.3267L52.07 28.4375H47.57V25.6591H54.8739V27.858C54.8739 29.392 54.5501 30.7102 53.9023 31.8125C53.2546 32.9091 52.3626 33.7557 51.2262 34.3523C50.0898 34.9432 48.7887 35.2386 47.3228 35.2386C45.6864 35.2386 44.2489 34.8778 43.0103 34.1562C41.7717 33.429 40.8058 32.3977 40.1126 31.0625C39.4251 29.7216 39.0813 28.1307 39.0813 26.2898C39.0813 24.875 39.2859 23.6136 39.695 22.5057C40.1097 21.392 40.6893 20.4489 41.4336 19.6761C42.1779 18.9034 43.0444 18.3153 44.033 17.9119C45.0217 17.5085 46.0927 17.3068 47.2461 17.3068C48.2347 17.3068 49.1552 17.4517 50.0075 17.7415C50.8597 18.0256 51.6154 18.429 52.2745 18.9517C52.9393 19.4744 53.4819 20.0966 53.9023 20.8182C54.3228 21.5341 54.5927 22.3239 54.712 23.1875H50.962Z" fill="#0A2042"/>
<path d="M105.505 38V20.5455H112.392C113.716 20.5455 114.843 20.7983 115.775 21.304C116.707 21.804 117.417 22.5 117.906 23.392C118.4 24.2784 118.647 25.3011 118.647 26.4602C118.647 27.6193 118.397 28.642 117.897 29.5284C117.397 30.4148 116.673 31.1051 115.724 31.5994C114.781 32.0937 113.639 32.3409 112.298 32.3409H107.909V29.3835H111.701C112.412 29.3835 112.997 29.2614 113.457 29.017C113.923 28.767 114.27 28.4233 114.497 27.9858C114.73 27.5426 114.846 27.0341 114.846 26.4602C114.846 25.8807 114.73 25.375 114.497 24.9432C114.27 24.5057 113.923 24.1676 113.457 23.929C112.991 23.6847 112.4 23.5625 111.684 23.5625H109.196V38H105.505ZM124.607 20.5455V38H120.976V20.5455H124.607ZM131.248 38.2472C130.413 38.2472 129.669 38.1023 129.015 37.8125C128.362 37.517 127.845 37.0824 127.464 36.5085C127.089 35.929 126.902 35.2074 126.902 34.3438C126.902 33.6165 127.035 33.0057 127.302 32.5114C127.569 32.017 127.933 31.6193 128.393 31.3182C128.853 31.017 129.376 30.7898 129.961 30.6364C130.552 30.483 131.172 30.375 131.819 30.3125C132.581 30.233 133.194 30.1591 133.66 30.0909C134.126 30.017 134.464 29.9091 134.674 29.767C134.885 29.625 134.99 29.4148 134.99 29.1364V29.0852C134.99 28.5455 134.819 28.1278 134.478 27.8324C134.143 27.5369 133.666 27.3892 133.047 27.3892C132.393 27.3892 131.873 27.5341 131.487 27.8239C131.1 28.108 130.845 28.4659 130.72 28.8977L127.362 28.625C127.532 27.8295 127.868 27.142 128.368 26.5625C128.868 25.9773 129.512 25.5284 130.302 25.2159C131.098 24.8977 132.018 24.7386 133.064 24.7386C133.791 24.7386 134.487 24.8239 135.152 24.9943C135.822 25.1648 136.416 25.429 136.933 25.7869C137.456 26.1449 137.868 26.6051 138.169 27.1676C138.47 27.7244 138.62 28.392 138.62 29.1705V38H135.177V36.1847H135.075C134.865 36.5938 134.583 36.9545 134.231 37.267C133.879 37.5739 133.456 37.8153 132.961 37.9915C132.467 38.1619 131.896 38.2472 131.248 38.2472ZM132.288 35.7415C132.822 35.7415 133.294 35.6364 133.703 35.4261C134.112 35.2102 134.433 34.9205 134.666 34.5568C134.899 34.1932 135.015 33.7812 135.015 33.321V31.9318C134.902 32.0057 134.745 32.0739 134.547 32.1364C134.353 32.1932 134.135 32.2472 133.89 32.2983C133.646 32.3437 133.402 32.3864 133.157 32.4261C132.913 32.4602 132.691 32.4915 132.493 32.5199C132.066 32.5824 131.694 32.6818 131.376 32.8182C131.058 32.9545 130.811 33.1392 130.635 33.3722C130.458 33.5994 130.37 33.8835 130.37 34.2244C130.37 34.7188 130.549 35.0966 130.907 35.358C131.271 35.6136 131.731 35.7415 132.288 35.7415ZM145.068 30.4318V38H141.437V24.9091H144.897V27.2188H145.051C145.341 26.4574 145.826 25.8551 146.508 25.4119C147.19 24.9631 148.017 24.7386 148.988 24.7386C149.897 24.7386 150.69 24.9375 151.366 25.3352C152.042 25.733 152.568 26.3011 152.943 27.0398C153.318 27.7727 153.505 28.6477 153.505 29.6648V38H149.875V30.3125C149.88 29.5114 149.676 28.8864 149.261 28.4375C148.846 27.983 148.275 27.7557 147.548 27.7557C147.059 27.7557 146.627 27.8608 146.252 28.071C145.883 28.2812 145.593 28.5881 145.383 28.9915C145.179 29.3892 145.074 29.8693 145.068 30.4318ZM159.998 30.4318V38H156.367V24.9091H159.827V27.2188H159.98C160.27 26.4574 160.756 25.8551 161.438 25.4119C162.12 24.9631 162.946 24.7386 163.918 24.7386C164.827 24.7386 165.62 24.9375 166.296 25.3352C166.972 25.733 167.498 26.3011 167.873 27.0398C168.248 27.7727 168.435 28.6477 168.435 29.6648V38H164.804V30.3125C164.81 29.5114 164.605 28.8864 164.191 28.4375C163.776 27.983 163.205 27.7557 162.478 27.7557C161.989 27.7557 161.557 27.8608 161.182 28.071C160.813 28.2812 160.523 28.5881 160.313 28.9915C160.108 29.3892 160.003 29.8693 159.998 30.4318ZM177.262 38.2557C175.916 38.2557 174.757 37.983 173.785 37.4375C172.819 36.8864 172.075 36.108 171.552 35.1023C171.029 34.0909 170.768 32.8949 170.768 31.5142C170.768 30.1676 171.029 28.9858 171.552 27.9688C172.075 26.9517 172.811 26.1591 173.76 25.5909C174.714 25.0227 175.833 24.7386 177.118 24.7386C177.981 24.7386 178.785 24.8778 179.529 25.1562C180.279 25.429 180.933 25.8409 181.49 26.392C182.052 26.9432 182.49 27.6364 182.802 28.4716C183.115 29.3011 183.271 30.2727 183.271 31.3864V32.3835H172.217V30.1335H179.853C179.853 29.6108 179.74 29.1477 179.512 28.7443C179.285 28.3409 178.97 28.0256 178.566 27.7983C178.169 27.5653 177.706 27.4489 177.177 27.4489C176.626 27.4489 176.137 27.5767 175.711 27.8324C175.291 28.0824 174.961 28.4205 174.723 28.8466C174.484 29.267 174.362 29.7358 174.356 30.2528V32.392C174.356 33.0398 174.475 33.5994 174.714 34.071C174.958 34.5426 175.302 34.9062 175.745 35.1619C176.189 35.4176 176.714 35.5455 177.322 35.5455C177.725 35.5455 178.095 35.4886 178.43 35.375C178.765 35.2614 179.052 35.0909 179.291 34.8636C179.529 34.6364 179.711 34.358 179.836 34.0284L183.194 34.25C183.024 35.0568 182.674 35.7614 182.146 36.3636C181.623 36.9602 180.947 37.4261 180.118 37.7614C179.294 38.0909 178.342 38.2557 177.262 38.2557ZM185.64 38V24.9091H189.16V27.1932H189.297C189.535 26.3807 189.936 25.767 190.498 25.3523C191.061 24.9318 191.708 24.7216 192.441 24.7216C192.623 24.7216 192.819 24.733 193.029 24.7557C193.24 24.7784 193.424 24.8097 193.583 24.8494V28.071C193.413 28.0199 193.177 27.9744 192.876 27.9347C192.575 27.8949 192.299 27.875 192.049 27.875C191.515 27.875 191.038 27.9915 190.618 28.2244C190.203 28.4517 189.873 28.7699 189.629 29.179C189.39 29.5881 189.271 30.0597 189.271 30.5938V38H185.64Z" fill="white"/>
</svg>
